<mxfile host="app.diagrams.net" modified="2022-05-28T08:26:29.739Z" agent="5.0 (Macintosh; Intel Mac OS X 10_15_7) AppleWebKit/537.36 (KHTML, like Gecko) Chrome/101.0.4951.64 Safari/537.36" etag="wzy6U4Iw0BBhhuyqoiO1" version="18.1.3" type="github">
  <diagram id="LzaQhwTsL_8u_cshs1Yc" name="Page-1">
    <mxGraphModel dx="1298" dy="834" grid="1" gridSize="10" guides="1" tooltips="1" connect="1" arrows="1" fold="1" page="1" pageScale="1" pageWidth="827" pageHeight="1169" math="0" shadow="0">
      <root>
        <mxCell id="0" />
        <mxCell id="1" parent="0" />
        <mxCell id="vikXA1dbumOzFCEFR3E6-14" value="" style="rounded=1;whiteSpace=wrap;html=1;dashed=1;strokeColor=default;" parent="1" vertex="1">
          <mxGeometry x="580" y="258" width="440" height="220" as="geometry" />
        </mxCell>
        <mxCell id="vikXA1dbumOzFCEFR3E6-9" style="edgeStyle=none;orthogonalLoop=1;jettySize=auto;html=1;elbow=vertical;entryX=0;entryY=0.5;entryDx=0;entryDy=0;" parent="1" source="JV97ico5GcmU_C5N4X0Z-4" target="vikXA1dbumOzFCEFR3E6-14" edge="1">
          <mxGeometry relative="1" as="geometry">
            <mxPoint x="510" y="368" as="targetPoint" />
          </mxGeometry>
        </mxCell>
        <mxCell id="JcEsaCAjYn1OfzfEiBPS-1" value="消费&lt;br&gt;日志" style="edgeLabel;html=1;align=center;verticalAlign=middle;resizable=0;points=[];" vertex="1" connectable="0" parent="vikXA1dbumOzFCEFR3E6-9">
          <mxGeometry x="-0.3023" y="1" relative="1" as="geometry">
            <mxPoint x="9" as="offset" />
          </mxGeometry>
        </mxCell>
        <mxCell id="JV97ico5GcmU_C5N4X0Z-4" value="Logstore" style="html=1;strokeColor=none;fillColor=#0079D6;labelPosition=center;verticalLabelPosition=middle;verticalAlign=top;align=center;fontSize=12;outlineConnect=0;spacingTop=-6;fontColor=#FFFFFF;sketch=0;shape=mxgraph.sitemap.log;" parent="1" vertex="1">
          <mxGeometry x="414" y="399.5" width="80" height="60" as="geometry" />
        </mxCell>
        <mxCell id="vikXA1dbumOzFCEFR3E6-10" value="Metricstore" style="html=1;strokeColor=none;fillColor=#0079D6;labelPosition=center;verticalLabelPosition=middle;verticalAlign=top;align=center;fontSize=12;outlineConnect=0;spacingTop=-6;fontColor=#FFFFFF;sketch=0;shape=mxgraph.sitemap.log;" parent="1" vertex="1">
          <mxGeometry x="1110" y="337" width="80" height="60" as="geometry" />
        </mxCell>
        <mxCell id="vikXA1dbumOzFCEFR3E6-54" value="" style="edgeStyle=none;orthogonalLoop=1;jettySize=auto;html=1;startArrow=none;startFill=0;elbow=vertical;" parent="1" source="vikXA1dbumOzFCEFR3E6-22" target="vikXA1dbumOzFCEFR3E6-52" edge="1">
          <mxGeometry relative="1" as="geometry" />
        </mxCell>
        <mxCell id="vikXA1dbumOzFCEFR3E6-22" value="解析" style="rounded=1;whiteSpace=wrap;html=1;strokeColor=default;" parent="1" vertex="1">
          <mxGeometry x="610" y="410" width="50" height="25" as="geometry" />
        </mxCell>
        <mxCell id="vikXA1dbumOzFCEFR3E6-41" value="" style="edgeStyle=none;orthogonalLoop=1;jettySize=auto;html=1;startArrow=none;startFill=0;elbow=vertical;exitX=1;exitY=0.5;exitDx=0;exitDy=0;" parent="1" source="vikXA1dbumOzFCEFR3E6-14" target="vikXA1dbumOzFCEFR3E6-10" edge="1">
          <mxGeometry relative="1" as="geometry">
            <mxPoint x="1120" y="370" as="targetPoint" />
          </mxGeometry>
        </mxCell>
        <mxCell id="JcEsaCAjYn1OfzfEiBPS-6" value="存储&lt;br&gt;时序" style="edgeLabel;html=1;align=center;verticalAlign=middle;resizable=0;points=[];" vertex="1" connectable="0" parent="vikXA1dbumOzFCEFR3E6-41">
          <mxGeometry x="-0.2056" y="-1" relative="1" as="geometry">
            <mxPoint as="offset" />
          </mxGeometry>
        </mxCell>
        <mxCell id="vikXA1dbumOzFCEFR3E6-38" value="timer task" style="sketch=0;outlineConnect=0;fontColor=#232F3E;gradientColor=none;fillColor=#D45B07;strokeColor=none;dashed=0;verticalLabelPosition=bottom;verticalAlign=top;align=center;html=1;fontSize=12;fontStyle=0;aspect=fixed;pointerEvents=1;shape=mxgraph.aws4.ecs_task;" parent="1" vertex="1">
          <mxGeometry x="930" y="371" width="33.92" height="44" as="geometry" />
        </mxCell>
        <mxCell id="JcEsaCAjYn1OfzfEiBPS-3" value="" style="edgeStyle=orthogonalEdgeStyle;rounded=0;orthogonalLoop=1;jettySize=auto;html=1;" edge="1" parent="1" source="vikXA1dbumOzFCEFR3E6-42" target="JV97ico5GcmU_C5N4X0Z-4">
          <mxGeometry relative="1" as="geometry" />
        </mxCell>
        <mxCell id="JcEsaCAjYn1OfzfEiBPS-20" value="过滤&lt;br&gt;日志" style="edgeLabel;html=1;align=center;verticalAlign=middle;resizable=0;points=[];" vertex="1" connectable="0" parent="JcEsaCAjYn1OfzfEiBPS-3">
          <mxGeometry x="-0.2086" y="3" relative="1" as="geometry">
            <mxPoint as="offset" />
          </mxGeometry>
        </mxCell>
        <mxCell id="vikXA1dbumOzFCEFR3E6-42" value="Logstore" style="html=1;strokeColor=none;fillColor=#0079D6;labelPosition=center;verticalLabelPosition=middle;verticalAlign=top;align=center;fontSize=12;outlineConnect=0;spacingTop=-6;fontColor=#FFFFFF;sketch=0;shape=mxgraph.sitemap.log;" parent="1" vertex="1">
          <mxGeometry x="414" y="270" width="80" height="60" as="geometry" />
        </mxCell>
        <mxCell id="vikXA1dbumOzFCEFR3E6-50" value="" style="rounded=1;whiteSpace=wrap;html=1;strokeColor=default;align=center;dashed=1;" parent="1" vertex="1">
          <mxGeometry x="745" y="317.5" width="105" height="82.5" as="geometry" />
        </mxCell>
        <mxCell id="vikXA1dbumOzFCEFR3E6-52" value="channel" style="strokeWidth=2;html=1;shape=mxgraph.flowchart.direct_data;whiteSpace=wrap;" parent="1" vertex="1">
          <mxGeometry x="660" y="355.5" width="70" height="23" as="geometry" />
        </mxCell>
        <mxCell id="JcEsaCAjYn1OfzfEiBPS-8" value="统计" style="rounded=1;whiteSpace=wrap;html=1;strokeColor=default;" vertex="1" parent="1">
          <mxGeometry x="770" y="355.5" width="50" height="25" as="geometry" />
        </mxCell>
        <mxCell id="JcEsaCAjYn1OfzfEiBPS-13" value="" style="edgeStyle=orthogonalEdgeStyle;rounded=0;orthogonalLoop=1;jettySize=auto;html=1;" edge="1" parent="1" source="JcEsaCAjYn1OfzfEiBPS-9" target="vikXA1dbumOzFCEFR3E6-22">
          <mxGeometry relative="1" as="geometry" />
        </mxCell>
        <mxCell id="JcEsaCAjYn1OfzfEiBPS-9" value="校验" style="rounded=1;whiteSpace=wrap;html=1;strokeColor=default;" vertex="1" parent="1">
          <mxGeometry x="610" y="300" width="50" height="25" as="geometry" />
        </mxCell>
        <mxCell id="JcEsaCAjYn1OfzfEiBPS-12" value="本地缓存" style="rounded=1;whiteSpace=wrap;html=1;strokeColor=default;" vertex="1" parent="1">
          <mxGeometry x="911.96" y="300" width="70" height="25" as="geometry" />
        </mxCell>
        <mxCell id="JcEsaCAjYn1OfzfEiBPS-18" style="edgeStyle=orthogonalEdgeStyle;rounded=0;orthogonalLoop=1;jettySize=auto;html=1;exitX=0.5;exitY=0;exitDx=0;exitDy=0;entryX=1;entryY=0;entryDx=0;entryDy=0;" edge="1" parent="1" source="vikXA1dbumOzFCEFR3E6-22" target="vikXA1dbumOzFCEFR3E6-22">
          <mxGeometry relative="1" as="geometry" />
        </mxCell>
        <mxCell id="JcEsaCAjYn1OfzfEiBPS-19" value="goroutine pool&lt;br&gt;" style="text;html=1;align=center;verticalAlign=middle;resizable=0;points=[];autosize=1;strokeColor=none;fillColor=none;" vertex="1" parent="1">
          <mxGeometry x="755" y="325" width="90" height="20" as="geometry" />
        </mxCell>
      </root>
    </mxGraphModel>
  </diagram>
</mxfile>
